<?xml version="1.0" standalone="no"?>
<!DOCTYPE svg PUBLIC "-//W3C//DTD SVG 1.1//EN" "http://www.w3.org/Graphics/SVG/1.1/DTD/svg11.dtd">
<svg xmlns="http://www.w3.org/2000/svg">
<metadata>Copyright (C) 2021 by original authors @ fontello.com</metadata>
<defs>
<font id="plchain" horiz-adv-x="1000" >
<font-face font-family="plchain" font-weight="400" font-stretch="normal" units-per-em="1000" ascent="850" descent="-150" />
<missing-glyph horiz-adv-x="1000" />
<glyph glyph-name="approve" unicode="&#xe800;" d="M261 231v-180h478v180c0 32-27 59-60 59h-358c-33 0-60-27-60-59z m418-60h-358v60h358v-60z m-179 478c-82 0-149-67-149-150l149-209 149 209c0 83-67 150-149 150z m0-269l-90 119c0 50 40 90 90 90 50 0 90-40 90-90l-90-119z" horiz-adv-x="1000" />

<glyph glyph-name="arrow-down" unicode="&#xe801;" d="M739 619h-30v59h-60v-59h-298v59h-60v-59h-30c-33 0-59-27-59-60v-478c0-32 26-59 59-59h478c33 0 60 27 60 59v478c0 33-27 60-60 60z m0-538h-478v329h478v-329z m0 388h-478v90h478v-90z" horiz-adv-x="1000" />

<glyph glyph-name="back" unicode="&#xe802;" d="M739 320h-363l166-167-42-42-239 239 239 239 42-42-166-167h363v-60z" horiz-adv-x="1000" />

<glyph glyph-name="cancel" unicode="&#xe803;" d="M500 571c-122 0-221-99-221-221 0-122 99-221 221-221 122 0 221 99 221 221 0 122-99 221-221 221z m0-398c-98 0-177 79-177 177 0 41 14 79 38 108l247-247c-30-24-67-38-108-38z m139 69l-247 248c30 23 67 37 108 37 98 0 177-79 177-177 0-41-14-78-38-108z" horiz-adv-x="1000" />

<glyph glyph-name="cancel-clear" unicode="&#xe804;" d="M663 187c-14-15-38-15-53 0l-110 109-110-109c-14-15-38-15-53 0-15 15-15 39 0 53l110 110-110 110c-15 15-15 38 0 53 15 15 39 15 53 0l110-109 110 109c15 15 39 15 53 0 15-15 15-38 0-53l-109-110 109-110c15-14 15-38 0-53z" horiz-adv-x="1000" />

<glyph glyph-name="close" unicode="&#xe805;" d="M688 496l-146-146 146-146c12-12 12-30 0-42-11-12-30-12-42 0l-146 146-146-146c-12-12-30-12-42 0-12 12-12 30 0 42l146 146-146 146c-12 12-12 31 0 42 12 12 30 12 42 0l146-146 146 146c12 12 30 12 42 0 11-11 11-31 0-42z" horiz-adv-x="1000" />

<glyph glyph-name="dashboard" unicode="&#xe806;" d="M231 619v-239h538v239h-538z m478-179h-418v119h418v-119z m-478-120v-239h239v239h-239z m179-179h-119v119h119v-119z m120 179v-239h239v239h-239z m179-179h-119v119h119v-119z" horiz-adv-x="1000" />

<glyph glyph-name="delete" unicode="&#xe807;" d="M559 452l-59-58-59 58c-12 12-31 12-43 0-12-12-12-31 0-43l58-59-58-59c-12-12-12-31 0-43 12-12 31-12 43 0l59 58 59-58c12-12 31-12 43 0 12 12 12 31 0 43l-58 59 58 59c12 12 12 31 0 43-12 12-32 12-43 0z m-59 208c-171 0-310-139-310-310 0-171 139-310 310-310 171 0 310 139 310 310 0 171-139 310-310 310z m0-558c-137 0-248 111-248 248s111 248 248 248c137 0 248-111 248-248s-111-248-248-248z" horiz-adv-x="1000" />

<glyph glyph-name="download" unicode="&#xe808;" d="M464 289v107c0 20 16 36 36 36l0 0c20 0 36-16 36-36v-107h64c16 0 24-20 13-31l-100-100c-8-7-19-7-26 0l-100 100c-11 11-3 31 13 31h64z m-143 222l0 0c0-19 16-36 36-36h286c20 0 36 17 36 36l0 0c0 20-16 36-36 36h-286c-20 0-36-16-36-36z" horiz-adv-x="1000" />

<glyph glyph-name="edit" unicode="&#xe809;" d="M241 199v-108h108l318 318-108 108-318-318z m510 294c11 11 11 29 0 40l-68 68c-11 11-29 11-40 0l-53-53 108-108 53 53z" horiz-adv-x="1000" />

<glyph glyph-name="filter" unicode="&#xe80a;" d="M351 529h298l-149-188-149 188z m-82 12c60-77 171-221 171-221v-179c0-16 14-30 30-30h60c16 0 30 14 30 30v179c0 0 111 144 171 221 15 20 1 48-23 48h-416c-24 0-38-28-23-48z" horiz-adv-x="1000" />

<glyph glyph-name="history" unicode="&#xe80b;" d="M542 619c-152 4-276-118-276-269h-54c-13 0-20-16-10-25l83-84c6-6 15-6 21 0l83 84c10 9 3 25-10 25h-54c0 116 95 210 212 209 111-1 205-95 206-206 2-117-92-212-209-212-48 0-92 16-128 44-12 9-28 9-39-2-13-13-12-34 2-45 46-36 103-57 165-57 151 0 273 125 269 277-4 140-121 257-261 261z m-15-150c-12 0-23-10-23-22v-110c0-10 6-20 15-26l93-55c11-6 25-2 31 8 6 11 3 24-8 31l-86 51v101c0 12-10 22-22 22z" horiz-adv-x="1000" />

<glyph glyph-name="info" unicode="&#xe80c;" d="M500 649c-165 0-299-134-299-299 0-165 134-299 299-299 165 0 299 134 299 299 0 165-134 299-299 299z m0-511c-23 0-42 19-42 42v170c0 23 19 42 42 42 23 0 42-19 42-42v-170c0-23-19-42-42-42z m42 339h-84v85h84v-85z" horiz-adv-x="1000" />

<glyph glyph-name="kit" unicode="&#xe80d;" d="M463 238h-73v75h73v73h75v-73h72v-75h-72v-72h-75v72z m336 351v-90c0-21-13-40-30-50v-338c0-33-33-60-60-60h-418c-27 0-60 27-60 60v338c-17 10-30 29-30 50v90c0 33 30 60 60 60h478c30 0 60-27 60-60z m-90-149h-418v-329h418v329z m30 149h-478v-90h478v90z" horiz-adv-x="1000" />

<glyph glyph-name="new" unicode="&#xe80e;" d="M730 293h-172v-173c0-31-26-57-58-57-32 0-57 26-57 57v173h-173c-31 0-57 25-57 57 0 32 26 58 57 58h173v172c0 32 25 57 57 57 32 0 58-25 58-57v-172h172c32 0 57-26 57-58 0-32-25-57-57-57z" horiz-adv-x="1000" />

<glyph glyph-name="next" unicode="&#xe80f;" d="M410 509c12 12 31 12 42 0l138-138c12-11 12-30 0-42l-138-138c-11-12-30-12-42 0-12 12-12 31 0 42l117 117-117 117c-12 11-12 30 0 42z" horiz-adv-x="1000" />

<glyph glyph-name="notifications" unicode="&#xe810;" d="M500 59c33 0 60 27 60 60h-120c0-33 27-60 60-60z m179 179v149c0 92-48 169-134 189v20c0 25-20 45-45 45-25 0-45-20-45-45v-20c-85-20-134-97-134-189v-149l-60-60v-29h478v29l-60 60z m-60-30h-238v179c0 74 45 135 119 135 74 0 119-61 119-135v-179z" horiz-adv-x="1000" />

<glyph glyph-name="order" unicode="&#xe811;" d="M470 499h179v-59h-179v59z m0-119h179v-60h-179v60z m0-120h179v-59h-179v59z m-119 239h59v-59h-59v59z m0-119h59v-60h-59v60z m0-120h59v-59h-59v59z m391 359h-484c-15 0-27-12-27-27v-484c0-12 12-27 27-27h484c12 0 27 15 27 27v484c0 15-15 27-27 27z m-33-478h-418v418h418v-418z" horiz-adv-x="1000" />

<glyph glyph-name="pending-actions" unicode="&#xe812;" d="M619 335c-82 0-149-67-149-149 0-83 67-149 149-149 83 0 150 66 150 149 0 82-67 149-150 149z m50-219l-64 64v95h29v-83l56-55-21-21z m-20 488h-95c-12 34-45 60-84 60-39 0-71-26-84-60h-95c-33 0-60-27-60-60v-448c0-33 27-59 60-59h182c-17 17-31 37-42 59h-140v448h60v-89h239v89h59v-152c22-3 42-9 60-17v169c0 33-27 60-60 60z m-179-60c-16 0-30 14-30 30s14 30 30 30c17 0 30-14 30-30s-13-30-30-30z" horiz-adv-x="1000" />

<glyph glyph-name="previous" unicode="&#xe813;" d="M590 191c-12-12-30-12-42 0l-138 138c-12 12-12 31 0 42l138 138c12 12 30 12 42 0 12-12 12-30 0-42l-116-117 116-116c12-12 12-31 0-43z" horiz-adv-x="1000" />

<glyph glyph-name="shipment" unicode="&#xe814;" d="M782 491h-105v141h-495c-38 0-70-31-70-70v-388h70c0-59 48-106 106-106 59 0 106 47 106 106h212c0-59 47-106 106-106 58 0 106 47 106 106h70v176l-106 141z m-17-53l69-88h-157v88h88z m-477-300c-19 0-35 16-35 36 0 19 16 35 35 35 20 0 36-16 36-35 0-20-16-36-36-36z m79 106c-20 22-47 35-79 35-31 0-59-13-78-35h-28v318h424v-318h-239z m345-106c-20 0-35 16-35 36 0 19 15 35 35 35 19 0 35-16 35-35 0-20-16-36-35-36z" horiz-adv-x="1000" />

<glyph glyph-name="submit" unicode="&#xe815;" d="M405 192l-126 126c-14 14-14 36 0 50 14 13 36 13 49 0l102-102 242 242c13 14 36 14 49 0 14-14 14-36 0-49l-266-267c-14-14-36-14-50 0z" horiz-adv-x="1000" />

<glyph glyph-name="time" unicode="&#xe816;" d="M500 649c-165 0-299-134-299-299 0-165 134-299 299-299 165 0 299 134 299 299 0 165-134 299-299 299z m0-538c-132 0-239 107-239 239 0 132 107 239 239 239 132 0 239-107 239-239 0-132-107-239-239-239z m-6 388h-2c-12 0-22-9-22-21v-141c0-11 6-20 15-26l124-74c10-6 23-3 29 7 6 10 3 24-7 30l-116 68v136c0 12-10 21-21 21z" horiz-adv-x="1000" />

<glyph glyph-name="unread" unicode="&#xe817;" d="M500 112c-132 0-239 107-239 239 0 132 107 238 239 238 132 0 239-106 239-238 0-132-107-239-239-239z" horiz-adv-x="1000" />

<glyph glyph-name="upload" unicode="&#xe818;" d="M536 411v-107c0-20-16-36-36-36l0 0c-20 0-36 16-36 36v107h-64c-16 0-24 20-13 31l100 100c8 7 19 7 26 0l100-100c11-11 3-31-13-31h-64z m143-222l0 0c0 20-16 36-36 36h-286c-20 0-36-16-36-36l0 0c0-20 16-36 36-36h286c20 0 36 16 36 36z" horiz-adv-x="1000" />

<glyph glyph-name="view-more" unicode="&#xe819;" d="M538 538h337v-75h-337v75z m0-376h337v75h-337v-75z m112 150h225v76h-225v-76z m-112 38l-188 188v-150h-225v-75h225v-151l188 188z" horiz-adv-x="1000" />

<glyph glyph-name="visibility-off" unicode="&#xe81a;" d="M500 514c83 0 149-67 149-149 0-19-3-38-10-55l87-87c45 38 80 86 102 142-51 131-179 224-328 224-42 0-82-8-119-21l65-65c17 7 35 11 54 11z m-298 82l68-68 14-14c-50-39-89-90-112-149 51-131 179-224 328-224 46 0 91 9 131 25l12-12 88-88 38 38-529 530-38-38z m165-165l46-47c-2-6-2-13-2-19 0-50 40-90 89-90 7 0 13 1 20 3l46-47c-20-9-42-15-66-15-82 0-149 67-149 149 0 23 6 46 16 66z m128 23l95-94 0 5c0 49-40 89-90 89l-5 0z" horiz-adv-x="1000" />

<glyph glyph-name="visibility-on" unicode="&#xe81b;" d="M500 574c-149 0-277-93-328-224 51-131 179-224 328-224 149 0 277 93 328 224-51 131-179 224-328 224z m0-373c-82 0-149 67-149 149 0 83 67 149 149 149 82 0 149-66 149-149 0-82-67-149-149-149z m0 239c-50 0-90-40-90-90 0-49 40-90 90-90 50 0 90 41 90 90 0 50-40 90-90 90z" horiz-adv-x="1000" />
</font>
</defs>
</svg>
