<?xml version="1.0" encoding="utf-8"?>
<!-- Generator: Adobe Illustrator 16.0.0, SVG Export Plug-In . SVG Version: 6.00 Build 0)  -->
<!DOCTYPE svg PUBLIC "-//W3C//DTD SVG 1.1//EN" "http://www.w3.org/Graphics/SVG/1.1/DTD/svg11.dtd">
<svg version="1.1" id="Layer_1" xmlns="http://www.w3.org/2000/svg" xmlns:xlink="http://www.w3.org/1999/xlink" x="0px" y="0px"
	 width="200px" height="200px" viewBox="0 0 200 200" enable-background="new 0 0 200 200" xml:space="preserve">
<path fill="#231F20" d="M176.699,85.663c-4.205,0.139-8.418,0.037-12.628,0.031c-0.674,0-1.336,0.164-1.596-0.867
	c-1.401-5.563-3.557-10.834-6.536-16.109c1.588-1.5,3.213-2.99,4.785-4.533c2.425-2.385,4.845-4.773,7.205-7.221
	c2.002-2.078,2.118-4.994,0.153-6.998c-5.252-5.355-10.556-10.664-15.911-15.916c-2.047-2.01-4.983-1.838-7.111,0.26
	c-3.419,3.375-6.807,6.779-10.181,10.199c-0.412,0.416-0.652,1.002-0.947,1.471c-5.51-3.299-10.873-5.641-16.541-7.297
	c-0.367-0.107-0.718-0.979-0.724-1.496c-0.057-4.533-0.164-9.072,0.011-13.6c0.125-3.221-1.009-5.408-4.036-6.563
	c-8.104,0-16.207,0-24.31,0c-2.951,1.246-4.078,3.443-3.943,6.648c0.184,4.367-0.002,8.748,0.079,13.121
	c0.021,1.158-0.37,1.572-1.437,1.844c-5.201,1.328-10.125,3.379-14.77,6.063c-0.972,0.561-1.524,0.555-2.324-0.275
	c-2.886-2.994-5.853-5.91-8.801-8.844c-2.71-2.697-5.479-2.699-8.178-0.01c-4.895,4.883-9.787,9.768-14.668,14.664
	c-2.62,2.627-2.628,5.436-0.005,8.061c3.282,3.283,6.595,6.535,9.954,9.861c-0.771,1.465-1.622,2.781-2.186,4.211
	c-1.582,4.006-3.1,8.037-4.514,12.105c-0.332,0.953-0.697,1.256-1.667,1.244c-3.997-0.049-8,0.123-11.988-0.064
	c-3.126-0.148-5.461,0.76-6.859,3.65c0,8.318,0,16.639,0,24.957c1.352,2.816,3.573,3.805,6.677,3.674
	c4.577-0.191,9.167-0.049,13.471-0.049c2.457,5.695,4.836,11.211,7.334,17c-2.959,2.951-6.204,6.186-9.447,9.42
	c-0.497,0.494-1.007,0.979-1.484,1.492c-1.875,2.02-2.03,4.932-0.119,6.885c5.288,5.398,10.63,10.746,16.037,16.027
	c1.997,1.951,4.882,1.764,6.982-0.289c3.396-3.322,6.735-6.703,10.085-10.07c0.417-0.42,0.755-0.918,1.014-1.238
	c3.757,1.625,7.237,3.174,10.757,4.627c1.389,0.572,2.849,1.008,4.312,1.363c0.931,0.227,1.169,0.672,1.158,1.574
	c-0.044,3.832,0.129,7.672-0.063,11.496c-0.163,3.242,0.892,5.541,3.945,6.803c8.104,0,16.206,0,24.31,0
	c3.018-1.166,4.181-3.346,4.027-6.574c-0.184-3.879-0.073-7.773-0.006-11.66c0.008-0.504,0.418-1.338,0.801-1.445
	c5.538-1.52,10.76-3.779,15.865-6.688c3.765,3.797,7.483,7.555,11.212,11.303c3.014,3.027,5.595,3.016,8.645-0.031
	c4.776-4.771,9.551-9.541,14.318-14.32c2.757-2.764,2.748-5.518-0.046-8.301c-3.784-3.77-7.589-7.514-11.085-10.973
	c2.386-5.617,4.635-10.912,6.965-16.4c4.33,0,8.976-0.143,13.609,0.049c3.103,0.129,5.325-0.859,6.678-3.674
	c0-8.211,0-16.422,0-24.633C181.889,86.714,179.792,85.56,176.699,85.663z M56.139,85.765c-1.519-2.441-1.218-5.215,0.707-6.924
	c1.951-1.734,4.669-1.711,6.952,0.061c0.16,0.125,0.325,0.242,0.381,0.283c2.084-2.568,3.961-5.211,6.167-7.547
	c20.965-22.201,59.015-13.605,68.423,15.418c0.833,2.57,0.123,4.969-1.872,6.324c-1.893,1.287-4.635,1.184-6.278-0.453
	c-0.768-0.766-1.339-1.826-1.727-2.855c-4.072-10.791-11.647-17.795-22.951-19.992c-12.498-2.428-22.833,1.771-30.771,11.758
	c-0.23,0.289-0.404,0.625-0.706,1.098c0.495,0.104,0.884,0.166,1.261,0.268c2.144,0.58,3.72,2.514,3.843,4.699
	c0.123,2.191-1.164,4.418-3.308,5.049c-3.461,1.018-6.967,1.928-10.507,2.619c-2.064,0.402-3.779-0.621-4.931-2.422
	C59.251,90.692,57.679,88.237,56.139,85.765z M143.225,121.099c-2.049,1.865-4.76,1.766-7.581-0.402
	c-0.852,1.225-1.641,2.496-2.563,3.662c-10.087,12.766-23.304,18.494-39.34,15.982c-16.048-2.514-26.854-12.025-32.461-27.313
	c-0.996-2.717-0.166-5.178,2.011-6.527c1.951-1.209,4.683-0.99,6.251,0.715c0.734,0.801,1.22,1.889,1.626,2.92
	c4.483,11.42,12.708,18.441,24.857,20.117c11.467,1.584,20.973-2.545,28.345-11.494c0.402-0.488,0.743-1.025,1.227-1.703
	c-3.281-0.635-5.058-2.447-5.17-5.033c-0.112-2.594,1.524-4.582,4.45-5.352c2.659-0.701,5.323-1.383,7.992-2.039
	c3.002-0.738,4.926,0.051,6.612,2.684c1.367,2.137,2.616,4.355,4.092,6.412C145.707,116.7,144.744,119.714,143.225,121.099z"/>
</svg>
