<?xml version="1.0" encoding="utf-8"?>
<!-- Generator: Adobe Illustrator 16.0.0, SVG Export Plug-In . SVG Version: 6.00 Build 0)  -->
<!DOCTYPE svg PUBLIC "-//W3C//DTD SVG 1.1//EN" "http://www.w3.org/Graphics/SVG/1.1/DTD/svg11.dtd">
<svg version="1.1" id="Layer_1" xmlns="http://www.w3.org/2000/svg" xmlns:xlink="http://www.w3.org/1999/xlink" x="0px" y="0px"
	 width="200px" height="200px" viewBox="0 0 200 200" enable-background="new 0 0 200 200" xml:space="preserve">
<path fill-rule="evenodd" clip-rule="evenodd" fill="#231F20" d="M186.641,108.466c0,6.319,0,12.637,0,18.953
	c-0.102,0.125-0.246,0.235-0.298,0.379c-1.674,4.581-4.428,6.573-9.261,6.62c-3.327,0.035-6.655,0.043-9.982-0.01
	c-1.062-0.019-1.604,0.229-1.834,1.39c-0.719,3.639-2.575,6.666-5.162,9.313c-8.854,9.057-25.01,6.188-30.13-5.414
	c-0.739-1.675-1.235-3.457-1.871-5.267c-11.342,0-22.674-0.013-34.005,0.045c-0.399,0.002-0.973,0.608-1.159,1.059
	c-0.62,1.499-0.976,3.116-1.656,4.585c-4.083,8.827-15.726,12.921-24.484,8.706c-5.581-2.685-9.191-6.945-10.594-12.992
	c-0.247-1.066-0.662-1.488-1.794-1.434c-1.912,0.097-3.833,0.029-5.75,0.027c-4.644-0.009-6.425-1.801-6.431-6.471
	c-0.004-2.117-0.001-4.232-0.001-6.495c-1.669,0-3.071,0.03-4.471-0.011c-1.292-0.035-2.621,0.022-3.868-0.256
	c-3.774-0.842-6.267-4.415-5.952-8.315c0.309-3.811,3.471-6.919,7.362-7.098c2.237-0.103,4.482-0.019,6.825-0.019
	c0-2.59,0-4.978,0-7.563c-0.748,0-1.409,0.002-2.07,0c-3.947-0.017-7.903,0.135-11.838-0.099c-4.604-0.272-7.769-3.841-7.551-8.096
	c0.223-4.385,3.545-7.514,8.141-7.575c3.834-0.051,7.669-0.012,11.504-0.012c0.6,0,1.2,0,1.786,0c0-2.617,0-5.009,0-7.513
	c-0.743,0-1.355,0-1.967,0c-6.035,0-12.068-0.007-18.102,0.002c-3.072,0.004-5.652-1.002-7.369-3.661
	c-0.541-0.836-0.871-1.807-1.298-2.716c0-1.016,0-2.031,0-3.045c1.599-4.856,5.089-6.581,10.016-6.428
	c5.634,0.181,11.278,0.043,16.919,0.043c0.599,0,1.198,0,1.957,0c0-1.683-0.082-3.145,0.016-4.595
	c0.218-3.229,2.037-4.931,5.242-4.935c26.959-0.028,53.918-0.053,80.877-0.063c3.776-0.002,5.732,1.968,5.752,5.737
	c0.022,4.286,0.005,8.572,0.006,12.859c0,0.592,0,1.184,0,1.855c3.825,0,7.377-0.08,10.925,0.019
	c6.153,0.172,10.764,2.932,13.568,8.487c2.006,3.971,3.979,7.957,5.921,11.963c1.038,2.138,2.568,3.716,4.854,4.412
	c2.527,0.768,5.075,1.491,7.643,2.109c3.905,0.939,6.985,2.896,8.438,6.783C186.058,105.243,186.269,106.886,186.641,108.466z
	 M134.238,95.494c8.117,0,16.14,0,24.39,0c-1.965-3.977-3.883-7.783-5.734-11.622c-1.634-3.39-4.298-5.728-7.924-6.209
	c-3.514-0.469-7.139-0.103-10.731-0.103C134.238,83.501,134.238,89.456,134.238,95.494z M81.363,131.687
	c0.012-3.749-3.191-6.936-6.921-6.884c-3.705,0.051-6.769,3.141-6.784,6.845c-0.016,3.694,3.036,6.807,6.745,6.881
	C78.125,138.604,81.351,135.432,81.363,131.687z M153.803,131.709c0.022-3.762-3.146-6.939-6.889-6.909
	c-3.709,0.031-6.763,3.101-6.789,6.823c-0.027,3.782,3.116,6.939,6.873,6.905C150.693,138.495,153.78,135.403,153.803,131.709z"/>
</svg>
