<?xml version="1.0" encoding="utf-8"?>
<!-- Generator: Adobe Illustrator 16.0.0, SVG Export Plug-In . SVG Version: 6.00 Build 0)  -->
<!DOCTYPE svg PUBLIC "-//W3C//DTD SVG 1.1//EN" "http://www.w3.org/Graphics/SVG/1.1/DTD/svg11.dtd">
<svg version="1.1" id="Layer_1" xmlns="http://www.w3.org/2000/svg" xmlns:xlink="http://www.w3.org/1999/xlink" x="0px" y="0px"
	 width="200px" height="200px" viewBox="0 0 200 200" enable-background="new 0 0 200 200" xml:space="preserve">
<path fill-rule="evenodd" clip-rule="evenodd" fill="#231F20" d="M72.828,16.191c18.333,0,36.666,0,55,0
	c2.914,1.079,3.982,3.225,3.895,6.254c-0.116,4.032-0.032,8.07-0.024,12.106c0.001,0.572,0.058,1.144,0.096,1.827
	c0.771,0,1.363,0,1.956,0.001c4.417,0.003,8.835-0.038,13.252,0.021c3.021,0.042,4.965,2.063,5.041,5.069
	c0.015,0.6,0.003,1.199,0.003,1.8c0.003,46.846,0.006,93.691,0.009,140.538c-11.241,0-22.48,0-33.72,0
	c0.005-12.481,0.021-24.964,0.006-37.446c-0.003-3.129-1.998-5.138-5.094-5.146c-8.83-0.021-17.66-0.021-26.49,0
	c-3.098,0.008-5.093,2.02-5.096,5.146c-0.013,12.482,0.002,24.965,0.007,37.446c-11.24,0-22.479,0-33.72,0
	c0.003-0.709,0.008-1.418,0.008-2.127c0.001-46.518,0-93.037,0.002-139.555c0-3.853,1.856-5.73,5.695-5.742
	c4.472-0.017,8.944-0.005,13.416-0.006c0.585,0,1.17,0,1.939,0c0-0.786,0-1.373,0-1.96c0-3.98,0.089-7.965-0.029-11.942
	C68.888,19.459,69.928,17.298,72.828,16.191z M104.91,45.697c0-1.686,0.015-3.15-0.003-4.615c-0.038-3.045-2.086-5.231-4.889-5.243
	c-2.806-0.012-4.886,2.177-4.925,5.205c-0.02,1.509-0.003,3.019-0.003,4.653c-1.657,0-3.12-0.024-4.582,0.006
	c-3.164,0.064-5.32,2.129-5.28,5.02c0.039,2.822,2.179,4.769,5.287,4.793c1.503,0.011,3.006,0.002,4.575,0.002
	c0,1.73-0.014,3.201,0.003,4.672c0.035,3.047,2.07,5.215,4.887,5.226c2.824,0.011,4.885-2.148,4.927-5.187
	c0.021-1.512,0.003-3.025,0.003-4.711c1.621,0,3.078,0.008,4.536-0.002c3.133-0.021,5.269-1.933,5.324-4.754
	c0.057-2.91-2.078-4.986-5.24-5.059C108.064,45.67,106.598,45.697,104.91,45.697z M75.153,75.112c-0.927,0-1.854-0.031-2.779,0.006
	c-2.628,0.104-4.675,2.105-4.788,4.651c-0.117,2.615,1.819,4.926,4.477,5.109c2.006,0.139,4.036,0.13,6.044,0.009
	c2.667-0.163,4.63-2.434,4.546-5.051c-0.084-2.627-2.152-4.636-4.885-4.723C76.897,75.086,76.025,75.109,75.153,75.112z
	 M99.938,75.11c-0.872,0-1.745-0.024-2.615,0.005c-2.714,0.092-4.789,2.132-4.859,4.75c-0.069,2.612,1.91,4.869,4.575,5.026
	c1.956,0.115,3.927,0.11,5.883,0.003c2.675-0.146,4.665-2.374,4.614-4.99c-0.05-2.628-2.11-4.687-4.819-4.787
	C101.792,75.083,100.864,75.111,99.938,75.11z M125.024,84.917c0.926,0,1.857,0.058,2.778-0.012c2.672-0.2,4.665-2.385,4.615-5
	c-0.05-2.628-2.109-4.706-4.819-4.784c-1.796-0.052-3.597-0.049-5.395-0.002c-2.714,0.071-4.789,2.127-4.858,4.746
	c-0.071,2.679,1.982,4.887,4.738,5.047C123.06,84.968,124.043,84.92,125.024,84.917z M75.197,94.754
	c-0.927,0-1.854-0.027-2.78,0.005c-2.705,0.096-4.777,2.153-4.835,4.772c-0.058,2.611,1.931,4.854,4.599,5.006
	c1.955,0.109,3.927,0.11,5.883-0.001c2.671-0.154,4.653-2.397,4.591-5.012c-0.063-2.629-2.125-4.67-4.843-4.766
	C76.942,94.727,76.069,94.754,75.197,94.754z M100.145,94.756c-0.981,0-1.964-0.036-2.942,0.007
	c-2.616,0.116-4.649,2.151-4.738,4.701c-0.09,2.617,1.867,4.897,4.531,5.063c2.008,0.126,4.038,0.131,6.045-0.004
	c2.66-0.179,4.603-2.48,4.493-5.096c-0.107-2.556-2.141-4.558-4.773-4.666C101.89,94.725,101.017,94.756,100.145,94.756z
	 M124.958,94.754c-0.927,0-1.854-0.027-2.779,0.005c-2.705,0.097-4.777,2.154-4.834,4.772c-0.058,2.612,1.931,4.854,4.6,5.006
	c1.956,0.109,3.927,0.111,5.882-0.001c2.671-0.154,4.653-2.398,4.59-5.014c-0.063-2.629-2.125-4.668-4.844-4.764
	C126.702,94.727,125.829,94.754,124.958,94.754z M75.139,114.398c-0.926,0-1.854-0.032-2.779,0.005
	c-2.625,0.107-4.668,2.118-4.774,4.665c-0.109,2.618,1.83,4.919,4.492,5.098c2.006,0.135,4.036,0.13,6.044,0.004
	c2.665-0.165,4.623-2.445,4.532-5.062c-0.089-2.559-2.113-4.585-4.736-4.703C76.993,114.363,76.065,114.399,75.139,114.398z
	 M99.957,124.202c0.981,0,1.966,0.058,2.942-0.011c2.678-0.189,4.677-2.361,4.637-4.979c-0.039-2.628-2.094-4.723-4.796-4.806
	c-1.796-0.055-3.598-0.048-5.394-0.004c-2.723,0.067-4.8,2.105-4.881,4.724c-0.083,2.68,1.963,4.9,4.713,5.069
	C98.101,124.252,99.03,124.205,99.957,124.202z M124.834,114.399c-0.926,0-1.854-0.037-2.779,0.007
	c-2.608,0.125-4.635,2.176-4.711,4.728c-0.075,2.549,1.809,4.821,4.397,5.02c2.058,0.157,4.146,0.149,6.206,0.009
	c2.658-0.184,4.589-2.505,4.466-5.119c-0.121-2.555-2.159-4.538-4.8-4.64C126.689,114.367,125.761,114.397,124.834,114.399z
	 M16.191,183.809c7.331,0,14.632,0,21.935,0c0-35.477,0-70.953,0-106.616c-0.742,0-1.327,0-1.913,0
	c-4.58,0-9.161,0.087-13.738-0.031c-3.018-0.077-5.179,0.95-6.284,3.851C16.191,115.277,16.191,149.543,16.191,183.809z
	 M183.809,183.809c0-34.266,0-68.531,0-102.797c-1.105-2.898-3.264-3.957-6.282-3.847c-3.267,0.12-6.541,0.027-9.813,0.027
	c-1.894,0-3.789,0-5.84,0c0,35.663,0,71.14,0,106.616C169.186,183.809,176.497,183.809,183.809,183.809z M108.512,183.809
	c0-10.889,0-21.775,0-32.664c-5.778,0-11.359,0-17.023,0c0,10.97,0,21.816,0,32.664C97.163,183.809,102.837,183.809,108.512,183.809
	z"/>
</svg>
