<?xml version="1.0" encoding="utf-8"?>
<!-- Generator: Adobe Illustrator 16.0.0, SVG Export Plug-In . SVG Version: 6.00 Build 0)  -->
<!DOCTYPE svg PUBLIC "-//W3C//DTD SVG 1.1//EN" "http://www.w3.org/Graphics/SVG/1.1/DTD/svg11.dtd">
<svg version="1.1" id="Layer_1" xmlns="http://www.w3.org/2000/svg" xmlns:xlink="http://www.w3.org/1999/xlink" x="0px" y="0px"
	 width="200px" height="200px" viewBox="0 0 200 200" enable-background="new 0 0 200 200" xml:space="preserve">
<path fill="#231F20" d="M100.001,55.816c-24.392,0-44.189,19.791-44.189,44.178c0,24.385,19.798,44.189,44.189,44.189
	c24.387,0,44.188-19.805,44.188-44.189C144.188,75.607,124.388,55.816,100.001,55.816z M100.001,135.337
	c-19.533,0-35.348-15.795-35.348-35.343c0-8.168,2.774-15.694,7.466-21.667l49.541,49.55
	C115.688,132.569,108.177,135.337,100.001,135.337z M127.886,121.645L78.344,72.106c5.972-4.693,13.483-7.462,21.657-7.462
	c19.535,0,35.346,15.807,35.346,35.35C135.347,108.156,132.572,115.685,127.886,121.645z"/>
</svg>
