<?xml version="1.0" encoding="utf-8"?>
<!-- Generator: Adobe Illustrator 16.0.0, SVG Export Plug-In . SVG Version: 6.00 Build 0)  -->
<!DOCTYPE svg PUBLIC "-//W3C//DTD SVG 1.1//EN" "http://www.w3.org/Graphics/SVG/1.1/DTD/svg11.dtd">
<svg version="1.1" id="Layer_1" xmlns="http://www.w3.org/2000/svg" xmlns:xlink="http://www.w3.org/1999/xlink" x="0px" y="0px"
	 width="200px" height="200px" viewBox="0 0 200 200" enable-background="new 0 0 200 200" xml:space="preserve">
<path fill="#231F20" d="M132.652,132.65c-2.955,2.956-7.738,2.956-10.703,0l-21.945-21.937L78.064,132.65
	c-2.969,2.956-7.753,2.956-10.705,0c-2.963-2.956-2.963-7.749,0-10.702l21.938-21.949L67.359,78.057c-2.963-2.96-2.963-7.742,0-10.7
	c2.952-2.967,7.736-2.967,10.705,0l21.939,21.937l21.945-21.937c2.965-2.967,7.748-2.967,10.703,0c2.947,2.958,2.947,7.74,0,10.7
	l-21.943,21.942l21.943,21.949C135.525,124.831,135.525,129.694,132.652,132.65z"/>
</svg>
