<?xml version="1.0" encoding="utf-8"?>
<!-- Generator: Adobe Illustrator 16.0.0, SVG Export Plug-In . SVG Version: 6.00 Build 0)  -->
<!DOCTYPE svg PUBLIC "-//W3C//DTD SVG 1.1//EN" "http://www.w3.org/Graphics/SVG/1.1/DTD/svg11.dtd">
<svg version="1.1" id="Layer_1" xmlns="http://www.w3.org/2000/svg" xmlns:xlink="http://www.w3.org/1999/xlink" x="0px" y="0px"
	 width="200px" height="200px" viewBox="0 0 200 200" enable-background="new 0 0 200 200" xml:space="preserve">
<path fill="#231F20" d="M137.615,70.797l-29.197,29.196l29.197,29.21c2.333,2.316,2.333,6.088,0,8.414
	c-2.325,2.326-6.082,2.326-8.413,0l-29.21-29.198l-29.196,29.198c-2.327,2.326-6.088,2.326-8.416,0
	c-2.325-2.326-2.325-6.098,0-8.414l29.197-29.21L62.38,70.797c-2.325-2.328-2.325-6.088,0-8.414c2.328-2.327,6.089-2.327,8.416,0
	l29.196,29.195l29.21-29.139c2.331-2.332,6.088-2.332,8.413,0C139.884,64.709,139.884,68.528,137.615,70.797z"/>
</svg>
