<?xml version="1.0" encoding="utf-8"?>
<!-- Generator: Adobe Illustrator 16.0.0, SVG Export Plug-In . SVG Version: 6.00 Build 0)  -->
<!DOCTYPE svg PUBLIC "-//W3C//DTD SVG 1.1//EN" "http://www.w3.org/Graphics/SVG/1.1/DTD/svg11.dtd">
<svg version="1.1" id="Layer_1" xmlns="http://www.w3.org/2000/svg" xmlns:xlink="http://www.w3.org/1999/xlink" x="0px" y="0px"
	 width="200px" height="200px" viewBox="0 0 200 200" enable-background="new 0 0 200 200" xml:space="preserve">
<path fill="#231F20" d="M108.383,46.27c-30.391-0.84-55.292,23.585-55.292,53.742H42.397c-2.682,0-4,3.222-2.085,5.068
	l16.661,16.727c1.192,1.187,3.046,1.187,4.235,0L77.87,105.08c1.85-1.847,0.542-5.068-2.152-5.068H65.036
	c0-23.292,18.985-42.1,42.391-41.799c22.217,0.294,40.902,18.987,41.203,41.194c0.293,23.354-18.509,42.401-41.797,42.401
	c-9.615,0-18.511-3.286-25.562-8.836c-2.385-1.853-5.728-1.673-7.878,0.473c-2.508,2.512-2.328,6.752,0.477,8.897
	c9.082,7.168,20.485,11.411,32.964,11.411c30.146,0,54.579-24.902,53.742-55.298C159.792,70.45,136.386,47.049,108.383,46.27z
	 M105.341,76.125c-2.451,0-4.478,2.028-4.478,4.479v21.973c0,2.083,1.129,4.055,2.925,5.135l18.625,11.05
	c2.145,1.247,4.899,0.537,6.157-1.56c1.247-2.145,0.538-4.891-1.562-6.15l-17.188-10.209V80.539
	C109.821,78.153,107.788,76.125,105.341,76.125z"/>
</svg>
