<?xml version="1.0" encoding="utf-8"?>
<!-- Generator: Adobe Illustrator 16.0.0, SVG Export Plug-In . SVG Version: 6.00 Build 0)  -->
<!DOCTYPE svg PUBLIC "-//W3C//DTD SVG 1.1//EN" "http://www.w3.org/Graphics/SVG/1.1/DTD/svg11.dtd">
<svg version="1.1" id="Layer_1" xmlns="http://www.w3.org/2000/svg" xmlns:xlink="http://www.w3.org/1999/xlink" x="0px" y="0px"
	 width="200px" height="200px" viewBox="0 0 200 200" enable-background="new 0 0 200 200" xml:space="preserve">
<path fill="#231F20" d="M123.887,102.983c-16.481,0-29.857,13.384-29.857,29.857c0,16.473,13.376,29.856,29.857,29.856
	c16.479,0,29.854-13.384,29.854-29.856C153.741,116.367,140.365,102.983,123.887,102.983z M133.741,146.858l-12.842-12.816v-19.114
	h5.972v16.652l11.044,11.052L133.741,146.858z M129.855,49.245h-18.987c-2.506-6.923-9.077-11.942-16.839-11.942
	c-7.759,0-14.327,5.02-16.834,11.942H58.203c-6.565,0-11.944,5.365-11.944,11.941v89.566c0,6.567,5.379,11.944,11.944,11.944H94.69
	c-3.524-3.407-6.393-7.466-8.479-11.944H58.203V61.187h11.944V79.1h47.768V61.187h11.94v30.335c4.241,0.594,8.241,1.842,11.944,3.58
	V61.187C141.8,54.61,136.423,49.245,129.855,49.245z M94.029,61.187c-3.28,0-5.969-2.683-5.969-5.971s2.688-5.971,5.969-5.971
	c3.284,0,5.972,2.683,5.972,5.971S97.313,61.187,94.029,61.187z"/>
</svg>
