<?xml version="1.0" encoding="utf-8"?>
<!-- Generator: Adobe Illustrator 16.0.0, SVG Export Plug-In . SVG Version: 6.00 Build 0)  -->
<!DOCTYPE svg PUBLIC "-//W3C//DTD SVG 1.1//EN" "http://www.w3.org/Graphics/SVG/1.1/DTD/svg11.dtd">
<svg version="1.1" id="Layer_1" xmlns="http://www.w3.org/2000/svg" xmlns:xlink="http://www.w3.org/1999/xlink" x="0px" y="0px"
	 width="200px" height="200px" viewBox="0 0 200 200" enable-background="new 0 0 200 200" xml:space="preserve">
<path fill="#231F20" d="M100,40.288c-32.971,0-59.713,26.763-59.713,59.714c0,32.973,26.742,59.71,59.713,59.71
	c32.959,0,59.713-26.737,59.713-59.71C159.713,67.051,132.959,40.288,100,40.288z M100,142.404c-4.643,0-8.479-3.81-8.479-8.488
	v-33.914c0-4.64,3.836-8.459,8.479-8.459c4.664,0,8.479,3.819,8.479,8.459v33.914C108.479,138.595,104.664,142.404,100,142.404z
	 M108.479,74.569H91.521V57.607h16.957V74.569z"/>
</svg>
