<?xml version="1.0" encoding="utf-8"?>
<!-- Generator: Adobe Illustrator 16.0.0, SVG Export Plug-In . SVG Version: 6.00 Build 0)  -->
<!DOCTYPE svg PUBLIC "-//W3C//DTD SVG 1.1//EN" "http://www.w3.org/Graphics/SVG/1.1/DTD/svg11.dtd">
<svg version="1.1" id="Layer_1" xmlns="http://www.w3.org/2000/svg" xmlns:xlink="http://www.w3.org/1999/xlink" x="0px" y="0px"
	 width="200px" height="200px" viewBox="0 0 200 200" enable-background="new 0 0 200 200" xml:space="preserve">
<path fill="#231F20" d="M100.018,67.161c16.484,0,29.854,13.373,29.854,29.855c0,3.883-0.774,7.528-2.132,10.931l17.428,17.441
	c9.015-7.523,16.117-17.264,20.497-28.373c-10.351-26.2-35.828-44.786-65.683-44.786c-8.379,0-16.386,1.506-23.786,4.189
	l12.898,12.897C92.52,67.942,96.14,67.161,100.018,67.161z M40.306,50.874l13.617,13.6l2.768,2.758
	c-9.93,7.693-17.697,17.979-22.356,29.785c10.328,26.216,35.826,44.784,65.683,44.784c9.254,0,18.095-1.784,26.152-5.009
	l2.507,2.514l17.505,17.422l7.576-7.567L47.893,43.274L40.306,50.874z M73.327,83.88l9.26,9.269
	c-0.304,1.247-0.484,2.564-0.484,3.867c0,9.918,8.005,17.913,17.914,17.913c1.311,0,2.629-0.154,3.89-0.477l9.261,9.279
	c-4.012,1.949-8.434,3.14-13.15,3.14c-16.455,0-29.856-13.37-29.856-29.855C70.161,92.321,71.368,87.883,73.327,83.88z
	 M99.065,79.239l18.83,18.79l0.1-0.946c0-9.905-8-17.913-17.913-17.913L99.065,79.239z"/>
</svg>
