<?xml version="1.0" encoding="utf-8"?>
<!-- Generator: Adobe Illustrator 16.0.0, SVG Export Plug-In . SVG Version: 6.00 Build 0)  -->
<!DOCTYPE svg PUBLIC "-//W3C//DTD SVG 1.1//EN" "http://www.w3.org/Graphics/SVG/1.1/DTD/svg11.dtd">
<svg version="1.1" id="Layer_1" xmlns="http://www.w3.org/2000/svg" xmlns:xlink="http://www.w3.org/1999/xlink" x="0px" y="0px"
	 width="200px" height="200px" viewBox="0 0 200 200" enable-background="new 0 0 200 200" xml:space="preserve">
<path fill="#231F20" d="M52.229,123.886v35.826h95.541v-35.826c0-6.566-5.375-11.942-11.944-11.942H64.171
	C57.599,111.944,52.229,117.32,52.229,123.886z M135.826,135.828H64.171v-11.942h71.655V135.828z M100.001,40.288
	c-16.484,0-29.857,13.373-29.857,29.857l29.857,41.798l29.855-41.798C129.856,53.661,116.479,40.288,100.001,40.288z
	 M100.001,94.031L82.089,70.146c0-9.907,7.995-17.914,17.912-17.914c9.912,0,17.911,8.007,17.911,17.914L100.001,94.031z"/>
</svg>
