<?xml version="1.0" encoding="utf-8"?>
<!-- Generator: Adobe Illustrator 16.0.0, SVG Export Plug-In . SVG Version: 6.00 Build 0)  -->
<!DOCTYPE svg PUBLIC "-//W3C//DTD SVG 1.1//EN" "http://www.w3.org/Graphics/SVG/1.1/DTD/svg11.dtd">
<svg version="1.1" id="Layer_1" xmlns="http://www.w3.org/2000/svg" xmlns:xlink="http://www.w3.org/1999/xlink" x="0px" y="0px"
	 width="200px" height="200px" viewBox="0 0 200 200" enable-background="new 0 0 200 200" xml:space="preserve">
<path fill="#231F20" d="M111.732,79.544L99.998,91.271L88.277,79.544c-2.417-2.419-6.314-2.419-8.735,0
	c-2.419,2.42-2.419,6.327,0,8.735L91.267,100l-11.726,11.727c-2.419,2.402-2.419,6.316,0,8.729c2.421,2.422,6.318,2.422,8.735,0
	l11.721-11.726l11.734,11.726c2.403,2.422,6.308,2.422,8.73,0c2.41-2.412,2.41-6.326,0-8.729L108.744,100l11.719-11.721
	c2.41-2.408,2.41-6.315,0-8.735C118.04,77.184,114.071,77.184,111.732,79.544z M99.998,38.014C65.721,38.014,38.01,65.73,38.01,100
	c0,34.281,27.711,61.986,61.987,61.986c34.279,0,61.992-27.705,61.992-61.986C161.99,65.73,134.277,38.014,99.998,38.014z
	 M99.998,149.582c-27.33,0-49.585-22.24-49.585-49.582s22.255-49.583,49.585-49.583c27.348,0,49.586,22.241,49.586,49.583
	S127.345,149.582,99.998,149.582z"/>
</svg>
