<?xml version="1.0" encoding="utf-8"?>
<!-- Generator: Adobe Illustrator 16.0.0, SVG Export Plug-In . SVG Version: 6.00 Build 0)  -->
<!DOCTYPE svg PUBLIC "-//W3C//DTD SVG 1.1//EN" "http://www.w3.org/Graphics/SVG/1.1/DTD/svg11.dtd">
<svg version="1.1" id="Layer_1" xmlns="http://www.w3.org/2000/svg" xmlns:xlink="http://www.w3.org/1999/xlink" x="0px" y="0px"
	 width="200px" height="200px" viewBox="0 0 200 200" enable-background="new 0 0 200 200" xml:space="preserve">
<path fill="#231F20" d="M94.027,70.143h35.826v11.944H94.027V70.143z M94.027,94.029h35.826v11.94H94.027V94.029z M94.027,117.913
	h35.826v11.943H94.027V117.913z M70.146,70.143h11.94v11.944h-11.94V70.143z M70.146,94.029h11.94v11.94h-11.94V94.029z
	 M70.146,117.913h11.94v11.943h-11.94V117.913z M148.364,46.26H51.637c-2.984,0-5.376,2.39-5.376,5.375v96.729
	c0,2.391,2.392,5.376,5.376,5.376h96.728c2.391,0,5.375-2.985,5.375-5.376V51.635C153.739,48.65,150.755,46.26,148.364,46.26z
	 M141.799,141.798H58.202V58.203h83.597V141.798z"/>
</svg>
