<?xml version="1.0" encoding="utf-8"?>
<!-- Generator: Adobe Illustrator 16.0.0, SVG Export Plug-In . SVG Version: 6.00 Build 0)  -->
<!DOCTYPE svg PUBLIC "-//W3C//DTD SVG 1.1//EN" "http://www.w3.org/Graphics/SVG/1.1/DTD/svg11.dtd">
<svg version="1.1" id="Layer_1" xmlns="http://www.w3.org/2000/svg" xmlns:xlink="http://www.w3.org/1999/xlink" x="0px" y="0px"
	 width="200px" height="200px" viewBox="0 0 200 200" enable-background="new 0 0 200 200" xml:space="preserve">
<path fill="#231F20" d="M156.457,71.777h-21.152V43.549H36.488c-7.756,0-14.113,6.343-14.113,14.11v77.625h14.113
	c0,11.714,9.457,21.167,21.188,21.167c11.709,0,21.155-9.453,21.155-21.167h42.354c0,11.714,9.458,21.167,21.16,21.167
	c11.709,0,21.165-9.453,21.165-21.167h14.113V100L156.457,71.777z M152.925,82.36L166.758,100h-31.453V82.36H152.925z
	 M57.677,142.334c-3.895,0-7.066-3.167-7.066-7.05c0-3.884,3.172-7.055,7.066-7.055c3.861,0,7.046,3.171,7.046,7.055
	C64.723,139.167,61.538,142.334,57.677,142.334z M73.342,121.173c-3.897-4.305-9.372-7.056-15.665-7.056
	c-6.299,0-11.801,2.75-15.682,7.056h-5.507V57.659h84.698v63.514H73.342z M142.347,142.334c-3.886,0-7.042-3.167-7.042-7.05
	c0-3.884,3.156-7.055,7.042-7.055c3.901,0,7.057,3.171,7.057,7.055C149.403,139.167,146.248,142.334,142.347,142.334z"/>
</svg>
