<?xml version="1.0" encoding="utf-8"?>
<!-- Generator: Adobe Illustrator 16.0.0, SVG Export Plug-In . SVG Version: 6.00 Build 0)  -->
<!DOCTYPE svg PUBLIC "-//W3C//DTD SVG 1.1//EN" "http://www.w3.org/Graphics/SVG/1.1/DTD/svg11.dtd">
<svg version="1.1" id="Layer_1" xmlns="http://www.w3.org/2000/svg" xmlns:xlink="http://www.w3.org/1999/xlink" x="0px" y="0px"
	 width="200px" height="200px" viewBox="0 0 200 200" enable-background="new 0 0 200 200" xml:space="preserve">
<path fill="#231F20" d="M99.942,40.288c-32.956,0-59.654,26.756-59.654,59.715c0,32.951,26.698,59.71,59.654,59.71
	c33.018,0,59.77-26.76,59.77-59.71C159.712,67.043,132.96,40.288,99.942,40.288z M99.999,147.771
	c-26.395,0-47.771-21.377-47.771-47.769c0-26.393,21.375-47.773,47.771-47.773c26.392,0,47.77,21.38,47.77,47.773
	C147.769,126.395,126.39,147.771,99.999,147.771z M98.691,70.145h-0.356c-2.392,0-4.308,1.914-4.308,4.305v28.175
	c0,2.088,1.077,4.061,2.933,5.137l24.78,14.865c2.023,1.201,4.651,0.607,5.846-1.43c1.251-2.035,0.605-4.717-1.488-5.906
	l-23.112-13.738V74.45C102.985,72.059,101.076,70.145,98.691,70.145z"/>
</svg>
