<?xml version="1.0" encoding="utf-8"?>
<!-- Generator: Adobe Illustrator 16.0.0, SVG Export Plug-In . SVG Version: 6.00 Build 0)  -->
<!DOCTYPE svg PUBLIC "-//W3C//DTD SVG 1.1//EN" "http://www.w3.org/Graphics/SVG/1.1/DTD/svg11.dtd">
<svg version="1.1" id="Layer_1" xmlns="http://www.w3.org/2000/svg" xmlns:xlink="http://www.w3.org/1999/xlink" x="0px" y="0px"
	 width="200px" height="200px" viewBox="0 0 200 200" enable-background="new 0 0 200 200" xml:space="preserve">
<path fill="#231F20" d="M107.145,87.755v21.487c0,3.952-3.221,7.168-7.159,7.168l0,0c-3.945,0-7.172-3.216-7.172-7.168V87.755
	H79.994c-3.231,0-4.806-3.874-2.512-6.098l19.993-19.994c1.434-1.43,3.651-1.43,5.086,0l19.987,19.994
	c2.229,2.224,0.655,6.098-2.576,6.098H107.145z M135.827,132.247L135.827,132.247c0-3.942-3.247-7.157-7.159-7.157H71.341
	c-3.937,0-7.168,3.215-7.168,7.157l0,0c0,3.94,3.231,7.162,7.168,7.162h57.327C132.58,139.409,135.827,136.188,135.827,132.247z"/>
</svg>
