<?xml version="1.0" encoding="utf-8"?>
<!-- Generator: Adobe Illustrator 16.0.0, SVG Export Plug-In . SVG Version: 6.00 Build 0)  -->
<!DOCTYPE svg PUBLIC "-//W3C//DTD SVG 1.1//EN" "http://www.w3.org/Graphics/SVG/1.1/DTD/svg11.dtd">
<svg version="1.1" id="Layer_1" xmlns="http://www.w3.org/2000/svg" xmlns:xlink="http://www.w3.org/1999/xlink" x="0px" y="0px"
	 width="200px" height="200px" viewBox="0 0 200 200" enable-background="new 0 0 200 200" xml:space="preserve">
<path fill="#231F20" d="M100,55.217c-29.855,0-55.349,18.566-65.683,44.783c10.334,26.216,35.827,44.783,65.683,44.783
	c29.856,0,55.351-18.567,65.684-44.783C155.35,73.783,129.856,55.217,100,55.217z M100,129.855
	c-16.478,0-29.855-13.392-29.855-29.855c0-16.492,13.377-29.855,29.855-29.855c16.479,0,29.856,13.363,29.856,29.855
	C129.856,116.464,116.479,129.855,100,129.855z M100,82.087c-9.914,0-17.914,7.988-17.914,17.913c0,9.898,8,17.913,17.914,17.913
	c9.913,0,17.913-8.015,17.913-17.913C117.913,90.075,109.913,82.087,100,82.087z"/>
</svg>
